# xmcd CD database file
#
# Track frame offsets:
#	150
#	16958
#	38506
#	49029
#	66258
#	81824
#	103267
#	126598
#	142594
#	162305
#	182604
#	207593
#	232709
#	251421
#	271477
#
# Disc length: 3875 seconds
#
# Revision: 2
# Processed by: cddbd v1.5.2PL0 Copyright (c) Steve Scherf et al.
# Submitted via: CDex 1.51
#
DISCID=c80f210f
DTITLE=Various Artist - 感謝每天 disc1
DYEAR=2006
DGENRE=Christian
TTITLE0=偶然遇上的驚喜
TTITLE1=我願意
TTITLE2=主禱文
TTITLE3=星月共眠
TTITLE4=主是安息港
TTITLE5=是我的錯
TTITLE6=每天每刻獻上為你
TTITLE7=真摯的愛
TTITLE8=奇異恩典(國)
TTITLE9=全因有你
TTITLE10=生命因愛動聽
TTITLE11=生命因愛動聽 mmo
TTITLE12=秋雨甘霖
TTITLE13=是你應許
TTITLE14=愛是不保留
EXTD=YEAR: 2006
EXTT0=
EXTT1=
EXTT2=
EXTT3=
EXTT4=
EXTT5=
EXTT6=
EXTT7=
EXTT8=
EXTT9=
EXTT10=
EXTT11=
EXTT12=
EXTT13=
EXTT14=
PLAYORDER=
